<?xml version="1.0" encoding="UTF-8"?>
<svg id="Layer_1" data-name="Layer 1" xmlns="http://www.w3.org/2000/svg" viewBox="0 0 1080 1080">
  <defs>
    <style>
      .cls-1 {
        fill: #e35205;
      }
    </style>
  </defs>
  <path class="cls-1" d="M849.05,526.36h-47.85c-7.12,0-13.96,3.21-18.17,8.96-.05.07-.1.14-.15.21-1.74,2.44-2.7,5.35-2.81,8.35-1.01,26.46-1.01,136.48-1.01,136.48l-322,98v-394.83l-77.67-5.97-153.24,70.42-9.19,371,163.11,161.67,483-251.28v-188.24s0-14.76-14-14.76Z"/>
  <path class="cls-1" d="M648.17,361.6c16.24,5.38,34.12,1.14,46.21-10.95l28.87-28.87c12.99-12.99,9.72-34.83-6.5-43.45L380.05,99.36l-147.31,82.03-4.34,175.09,150.98-83.93,268.79,89.05Z"/>
</svg>